<svg width="506" height="95" viewBox="0 0 506 95" fill="none" xmlns="http://www.w3.org/2000/svg">
<path d="M32.3318 79.5C36.4568 79.5 39.6651 78.2083 41.9568 75.625C44.2068 73.0417 45.6235 69.5417 46.2068 65.125H18.5193C18.811 69.8333 20.2485 73.3958 22.8318 75.8125C25.3735 78.2708 28.5401 79.5 32.3318 79.5ZM32.3318 94.1875C26.6651 94.1875 21.561 93.125 17.0193 91C12.4776 88.875 8.72762 85.5208 5.76929 80.9375C3.10262 76.8958 1.37345 72.2083 0.581787 66.875C0.123454 63.75 -0.0640462 59.25 0.0192871 53.375L46.6443 53.375C46.3943 46.5417 44.2485 41.75 40.2068 39C37.7485 37.2917 34.7901 36.4375 31.3318 36.4375C27.6651 36.4375 24.686 37.4792 22.3943 39.5625C21.1443 40.6875 20.0401 42.25 19.0818 44.25H0.894287C1.35262 40.2083 3.45679 36.1042 7.20679 31.9375C13.0401 25.3125 21.2068 22 31.7068 22C40.3735 22 48.0193 24.7917 54.6443 30.375C61.2693 35.9583 64.5818 45.0417 64.5818 57.625C64.5818 69.4167 61.6026 78.4583 55.6443 84.75C49.6443 91.0417 41.8735 94.1875 32.3318 94.1875Z" fill="#0E0E0E"/>
<path d="M420.8 22.375C423.8 22.375 426.758 22.9583 429.675 24.125C432.591 25.2917 435.237 27.3333 437.612 30.25C439.529 32.625 440.821 35.5417 441.487 39C441.904 41.2917 442.112 44.6458 442.112 49.0625L441.987 92H423.737V48.625C423.737 46.0417 423.321 43.9167 422.487 42.25C420.904 39.0833 417.987 37.5 413.737 37.5C408.821 37.5 405.425 39.5417 403.55 43.625C402.591 45.7917 402.112 48.3958 402.112 51.4375V92H384.175V51.4375C384.175 47.3958 383.758 44.4583 382.925 42.625C381.425 39.3333 378.487 37.6875 374.112 37.6875C369.029 37.6875 365.612 39.3333 363.862 42.625C362.904 44.5 362.425 47.2917 362.425 51V92H344.362V24H361.675V33.9375C363.883 30.3958 365.966 27.875 367.925 26.375C371.383 23.7083 375.862 22.375 381.362 22.375C386.571 22.375 390.779 23.5208 393.987 25.8125C396.571 27.9375 398.529 30.6667 399.862 34C402.196 30 405.091 27.0625 408.55 25.1875C412.216 23.3125 416.3 22.375 420.8 22.375Z" fill="#0E0E0E"/>
<path d="M274.785 37.1875V24.5H284.285V5.5H301.91V24.5H312.972V37.1875H301.91V73.1875C301.91 75.9792 302.264 77.7292 302.972 78.4375C303.681 79.1042 305.847 79.4375 309.472 79.4375C310.014 79.4375 310.577 79.4375 311.16 79.4375C311.785 79.3958 312.389 79.3542 312.972 79.3125V92.625L304.535 92.9375C296.118 93.2292 290.368 91.7708 287.285 88.5625C285.285 86.5208 284.285 83.375 284.285 79.125V37.1875H274.785Z" fill="#0E0E0E"/>
<path d="M228.965 23.875V64.9375C228.965 68.8125 229.423 71.7292 230.34 73.6875C231.965 77.1458 235.152 78.875 239.902 78.875C245.986 78.875 250.152 76.4167 252.402 71.5C253.569 68.8333 254.152 65.3125 254.152 60.9375V23.875H272.215V92H254.902V82.375C254.736 82.5833 254.319 83.2083 253.652 84.25C252.986 85.2917 252.194 86.2083 251.277 87C248.486 89.5 245.777 91.2083 243.152 92.125C240.569 93.0417 237.527 93.5 234.027 93.5C223.944 93.5 217.152 89.875 213.652 82.625C211.694 78.625 210.715 72.7292 210.715 64.9375V23.875H228.965Z" fill="#0E0E0E"/>
<path d="M171.207 79.4375C176.416 79.4375 180.416 77.5833 183.207 73.875C185.999 70.1667 187.395 64.8958 187.395 58.0625C187.395 51.2292 185.999 45.9792 183.207 42.3125C180.416 38.6042 176.416 36.75 171.207 36.75C165.999 36.75 161.978 38.6042 159.145 42.3125C156.353 45.9792 154.957 51.2292 154.957 58.0625C154.957 64.8958 156.353 70.1667 159.145 73.875C161.978 77.5833 165.999 79.4375 171.207 79.4375ZM206.082 58.0625C206.082 68.0625 203.207 76.625 197.457 83.75C191.707 90.8333 182.978 94.375 171.27 94.375C159.561 94.375 150.832 90.8333 145.082 83.75C139.332 76.625 136.457 68.0625 136.457 58.0625C136.457 48.2292 139.332 39.7083 145.082 32.5C150.832 25.2917 159.561 21.6875 171.27 21.6875C182.978 21.6875 191.707 25.2917 197.457 32.5C203.207 39.7083 206.082 48.2292 206.082 58.0625Z" fill="#0E0E0E"/>
<path d="M106.887 22.375C115.846 22.375 122.846 25.6042 127.887 32.0625C132.971 38.5208 135.512 46.8542 135.512 57.0625C135.512 67.6458 133.012 76.4167 128.012 83.375C123.012 90.3333 116.033 93.8125 107.075 93.8125C101.45 93.8125 96.9291 92.6875 93.5125 90.4375C91.4708 89.1042 89.2625 86.7708 86.8875 83.4375V92H69.45V0H87.2V32.75C89.45 29.5833 91.9291 27.1667 94.6375 25.5C97.8458 23.4167 101.929 22.375 106.887 22.375ZM102.325 79.125C106.908 79.125 110.471 77.2708 113.012 73.5625C115.554 69.8542 116.825 64.9792 116.825 58.9375C116.825 54.1042 116.2 50.1042 114.95 46.9375C112.575 40.9375 108.2 37.9375 101.825 37.9375C95.3666 37.9375 90.9291 40.875 88.5125 46.75C87.2625 49.875 86.6375 53.9167 86.6375 58.875C86.6375 64.7083 87.9291 69.5417 90.5125 73.375C93.0958 77.2083 97.0333 79.125 102.325 79.125Z" fill="#0E0E0E"/>
<path d="M463.625 57.25C464.75 56.5417 465.896 55.9583 467.062 55.5C468.187 55.0833 469.75 54.6875 471.75 54.3125L475.75 53.5625C479.5 52.8958 482.187 52.0833 483.812 51.125C486.562 49.5 487.937 46.9792 487.937 43.5625C487.937 40.5208 487.104 38.3125 485.437 36.9375C483.729 35.6042 481.666 34.9375 479.25 34.9375C475.416 34.9375 471.896 36.0625 468.687 38.3125C465.437 40.5625 463.75 44.6667 463.625 50.625V57.25ZM474.437 65.5625C471.146 65.9792 468.791 66.5 467.375 67.125C464.833 68.2083 463.562 69.8958 463.562 72.1875C463.562 74.9792 464.541 76.8958 466.5 77.9375C468.416 79.0208 471.25 79.5625 475 79.5625C479.208 79.5625 482.187 78.5208 483.937 76.4375C485.187 74.8958 486.021 72.8125 486.437 70.1875H503.625C503.25 76.1458 501.583 81.0417 498.625 84.875C493.916 90.875 485.833 93.875 474.375 93.875C466.916 93.875 460.291 92.3958 454.5 89.4375C448.708 86.4792 445.812 80.8958 445.812 72.6875V41.4375C445.812 39.2708 445.771 36.6458 445.687 33.5625C445.562 31.2292 445.208 29.6458 444.625 28.8125C444.041 27.9792 443.166 27.2917 442 26.75V24.125L461.375 24.125C461.916 25.5 462.291 26.7917 462.5 28C462.708 29.2083 462.875 30.5833 463 32.125C465.458 29.4583 468.291 27.1875 471.5 25.3125C475.333 23.1042 479.666 22 484.5 22C490.666 22 495.771 23.75 499.812 27.25C503.812 30.7917 505.812 35.7917 505.812 42.25C505.812 50.625 502.583 56.6875 496.125 60.4375C492.583 62.4792 487.375 63.9375 480.5 64.8125L474.437 65.5625Z" fill="#0E0E0E"/>
</svg>
