<svg width="456" height="408" viewBox="0 0 456 408" fill="none" xmlns="http://www.w3.org/2000/svg">
<path d="M165.068 8.70781C177.819 19.0355 181.495 32.2479 184.987 47.8366C194.304 88.9689 210.072 127.517 226.658 166.168C234.128 152.414 241.118 138.713 247.014 124.198C247.523 122.953 247.523 122.953 248.041 121.684C258.087 97.0076 265.985 72.1482 271.033 45.954C274.042 30.9893 279.273 18.6779 291.527 9.12032C304.146 1.58017 316.168 -0.883238 330.718 0.997183C342.65 4.67425 353.349 12.1559 359.557 23.1613C365.392 35.829 366.783 49.3552 362.561 62.8515C356.836 76.631 344.323 86.1821 333.532 96.0103C324.783 103.992 316.762 112.469 309.095 121.49C307.966 122.803 306.838 124.115 305.674 125.467C297.599 134.897 289.9 144.552 282.413 154.455C280.654 156.771 278.882 159.075 277.105 161.376C271.413 168.745 265.767 176.124 260.444 183.768C301.937 184.615 344.031 176.274 383.347 163.438C400.535 157.902 414.964 156 431.763 163.856C439.167 168.004 444.932 172.611 449.643 179.706C450.201 180.532 450.758 181.357 451.333 182.208C457.31 192.998 456.712 207.238 454.157 219.021C450.091 230.411 441.399 240.353 430.723 246.045C417.004 251.803 404.618 250.996 390.687 246.553C388.176 245.8 385.663 245.05 383.149 244.305C381.857 243.919 380.566 243.533 379.235 243.136C344.76 233.001 309.383 228.039 273.838 223.375C272.294 223.17 270.75 222.966 269.16 222.755C267.118 222.489 267.118 222.489 265.035 222.219C261.795 221.676 261.795 221.676 259.093 220.322C283.292 259.656 313.492 296.543 348.632 326.548C357.891 334.728 363.605 343.73 365.021 356.204C365.49 370.523 362.837 381.528 353.692 392.685C343.643 402.932 333.353 407.871 319.062 408C305.361 407.665 294.96 403.991 284.995 394.247C275.808 383.77 272.397 370.323 269.424 357.014C268.345 352.222 267.178 347.452 266.008 342.682C265.772 341.719 265.536 340.755 265.292 339.763C257.006 306.418 243.689 273.877 228.01 243.337C203.001 274.461 191.842 326.691 183.473 364.86C178.874 385.658 178.874 385.658 171.25 393.615C170.558 394.38 169.867 395.144 169.154 395.932C160.113 404.795 148.976 407.461 136.62 407.746C122.352 407.283 112.654 403.688 102.327 393.615C91.8277 380.894 90.208 367.83 91.5161 351.646C95.2618 333.538 111.261 320.884 124.241 308.978C136.413 297.806 147.496 286.122 157.736 273.122C158.963 271.621 160.193 270.123 161.426 268.627C179.52 246.957 179.52 246.957 194.224 223.03C149.662 225.354 104.98 232.279 62.8459 247.473C50.2961 251.74 37.4745 251.365 25.2964 246.045C14.634 239.773 6.17112 230.78 1.91041 219.068C-0.723714 207.401 -1.31271 193.012 4.59214 182.297C12.2683 171.149 22.2276 160.974 36.0233 158.383C52.9005 156.333 68.8572 161.397 84.8352 166.403C120.409 177.537 157.251 181.673 194.224 185.122C170.589 148.938 144.431 114.151 111.576 85.7559C99.3641 75.1029 92.7769 64.7729 91.2627 48.3398C90.8575 35.552 94.4894 24.6649 102.327 14.5357C119.163 -2.08088 145.44 -5.03492 165.068 8.70781Z" fill="#E2E2E2"/>
</svg>
