<svg width="88" height="31" viewBox="0 0 88 31" fill="none" xmlns="http://www.w3.org/2000/svg">
<path d="M43.6025 2.37795L44.4675 9.57352C44.5182 9.99643 45.0363 10.1658 45.3246 9.85412L50.2213 4.54564C50.621 4.11271 51.3041 4.61279 51.0187 5.12991L47.5229 11.4646C47.3171 11.8364 47.6373 12.2814 48.0519 12.1992L55.1091 10.8052C55.6848 10.6919 55.9463 11.5017 55.4134 11.7502L48.891 14.8038C48.5082 14.9832 48.5082 15.5324 48.891 15.7118L55.4134 18.7654C55.9453 19.0149 55.6848 19.8247 55.1091 19.7104L48.0519 18.3164C47.6373 18.2343 47.3171 18.6792 47.5229 19.051L51.0187 25.3857C51.3041 25.9028 50.621 26.4029 50.2213 25.97L45.3246 20.6615C45.0373 20.3498 44.5192 20.5192 44.4675 20.9421L43.6025 28.1377C43.5319 28.7249 42.6868 28.7249 42.6162 28.1377L41.7512 20.9421C41.7005 20.5192 41.1825 20.3498 40.8942 20.6615L35.9974 25.97C35.5977 26.4029 34.9147 25.9028 35.2 25.3857L38.6958 19.051C38.9017 18.6792 38.5815 18.2343 38.1669 18.3164L31.1096 19.7104C30.5339 19.8237 30.2724 19.0139 30.8054 18.7654L37.3277 15.7118C37.7105 15.5324 37.7105 14.9832 37.3277 14.8038L30.8054 11.7502C30.2734 11.5007 30.5339 10.6909 31.1096 10.8052L38.1669 12.1992C38.5815 12.2814 38.9017 11.8364 38.6958 11.4646L35.2 5.12991C34.9147 4.61279 35.5977 4.11271 35.9974 4.54564L40.8942 9.85412C41.1815 10.1658 41.6995 9.99643 41.7512 9.57352L42.6162 2.37795C42.6878 1.79068 43.5319 1.79068 43.6025 2.37795Z" fill="#E2E2E2"/>
<path d="M70.0569 3.43348C70.8289 4.05879 71.0514 4.85876 71.2629 5.80261C71.827 8.29304 72.7817 10.627 73.786 12.9672C74.2382 12.1345 74.6614 11.3049 75.0184 10.4261C75.0492 10.3507 75.0492 10.3507 75.0806 10.2738C75.6889 8.77976 76.167 7.2746 76.4727 5.68862C76.6549 4.78256 76.9716 4.03714 77.7135 3.45846C78.4776 3.00192 79.2055 2.85277 80.0864 2.96663C80.8089 3.18926 81.4567 3.64225 81.8326 4.30859C82.1858 5.07558 82.2701 5.89455 82.0144 6.71171C81.6678 7.54602 80.9102 8.12431 80.2568 8.71938C79.7271 9.20266 79.2414 9.71591 78.7773 10.2621C78.7089 10.3416 78.6406 10.421 78.5701 10.5029C78.0812 11.0738 77.615 11.6584 77.1617 12.258C77.0552 12.3982 76.9479 12.5377 76.8403 12.6771C76.4957 13.1233 76.1539 13.57 75.8316 14.0328C78.3438 14.0841 80.8925 13.5791 83.2729 12.8019C84.3136 12.4667 85.1873 12.3515 86.2044 12.8272C86.6527 13.0784 87.0017 13.3573 87.287 13.7869C87.3207 13.8369 87.3545 13.8869 87.3893 13.9384C87.7512 14.5917 87.715 15.4538 87.5603 16.1673C87.3141 16.8569 86.7878 17.4588 86.1415 17.8035C85.3108 18.1521 84.5609 18.1032 83.7174 17.8342C83.5653 17.7886 83.4132 17.7433 83.261 17.6982C83.1828 17.6748 83.1046 17.6514 83.024 17.6274C80.9366 17.0138 78.7946 16.7133 76.6426 16.4309C76.5491 16.4185 76.4556 16.4061 76.3593 16.3933C76.2357 16.3773 76.2357 16.3773 76.1095 16.3609C75.9134 16.328 75.9134 16.328 75.7497 16.246C77.2149 18.6276 79.0435 20.861 81.1711 22.6777C81.7317 23.173 82.0777 23.718 82.1634 24.4733C82.1918 25.3402 82.0311 26.0066 81.4775 26.6821C80.869 27.3025 80.246 27.6016 79.3807 27.6094C78.5512 27.5891 77.9214 27.3666 77.3181 26.7767C76.7618 26.1424 76.5553 25.3281 76.3753 24.5223C76.3099 24.2322 76.2393 23.9434 76.1685 23.6546C76.1542 23.5962 76.1399 23.5379 76.1251 23.4778C75.6234 21.4589 74.8171 19.4886 73.8678 17.6396C72.3536 19.524 71.6779 22.6864 71.1712 24.9974C70.8927 26.2566 70.8927 26.2566 70.4312 26.7384C70.3893 26.7847 70.3474 26.831 70.3043 26.8787C69.7568 27.4153 69.0826 27.5767 68.3344 27.594C67.4705 27.566 66.8834 27.3483 66.2581 26.7384C65.6224 25.9682 65.5243 25.1772 65.6035 24.1973C65.8303 23.101 66.799 22.3347 67.5849 21.6139C68.3219 20.9374 68.9929 20.23 69.6129 19.4429C69.6872 19.3521 69.7617 19.2614 69.8363 19.1708C70.9318 17.8587 70.9318 17.8587 71.8222 16.41C69.124 16.5507 66.4187 16.97 63.8676 17.89C63.1078 18.1483 62.3315 18.1256 61.5941 17.8035C60.9485 17.4238 60.4361 16.8792 60.1782 16.1702C60.0187 15.4637 59.983 14.5925 60.3405 13.9438C60.8053 13.2688 61.4083 12.6527 62.2436 12.4958C63.2655 12.3718 64.2316 12.6783 65.199 12.9814C67.3529 13.6556 69.5836 13.906 71.8222 14.1148C70.3911 11.924 68.8073 9.81771 66.8181 8.0985C66.0787 7.4535 65.6799 6.82805 65.5882 5.83308C65.5636 5.05881 65.7835 4.39963 66.2581 3.78634C67.2775 2.78026 68.8684 2.6014 70.0569 3.43348Z" fill="#E2E2E2"/>
<path d="M13.5625 0L14.899 6.96715C15.3734 9.44023 17.9583 10.9187 20.3606 10.089L27.125 7.7508L21.6971 12.3797C19.7709 14.0231 19.7709 16.9785 21.6971 18.6219L27.125 23.2508L20.3606 20.9126C17.9583 20.0829 15.3734 21.5598 14.899 24.0329L13.5625 31L12.226 24.0329C11.7516 21.5598 9.16666 20.0813 6.76442 20.9126L0 23.2508L5.4279 18.6219C7.35419 16.9785 7.35419 14.0231 5.4279 12.3797L0 7.7508L6.76442 10.089C9.16666 10.9187 11.7516 9.44182 12.226 6.96715L13.5625 0Z" fill="#E2E2E2"/>
</svg>
