<svg width="265" height="157" viewBox="0 0 265 157" fill="none" xmlns="http://www.w3.org/2000/svg">
<path d="M234 43.7842H255.167V123.618H234V43.7842Z" fill="#28231F"/>
<path d="M103.42 45.166V93.2861C103.42 97.8271 103.957 101.245 105.031 103.54C106.936 107.593 110.671 109.619 116.237 109.619C123.366 109.619 128.249 106.738 130.886 100.977C132.253 97.8516 132.937 93.7256 132.937 88.5986V45.166H154.104V125H133.815V113.721C133.62 113.965 133.132 114.697 132.351 115.918C131.569 117.139 130.642 118.213 129.567 119.141C126.296 122.07 123.122 124.072 120.046 125.146C117.019 126.221 113.454 126.758 109.353 126.758C97.5361 126.758 89.5771 122.51 85.4756 114.014C83.1807 109.326 82.0332 102.417 82.0332 93.2861V45.166H103.42Z" fill="#28231F"/>
<path d="M39.1846 109.504C46.3623 109.504 51.4648 106.428 54.4922 100.275C56.4453 96.2227 57.4219 91.0957 57.4219 84.8945C57.4219 80.0117 56.5918 75.6416 54.9316 71.7842C51.9531 64.8506 46.7285 61.3838 39.2578 61.3838C33.9844 61.3838 29.7363 63.4102 26.5137 67.4629C23.3398 71.5156 21.7529 77.668 21.7529 85.9199C21.7529 91.4375 22.4854 95.9541 23.9502 99.4697C26.6846 106.159 31.7627 109.504 39.1846 109.504ZM33.9111 43C40.5518 43 45.9229 44.6357 50.0244 47.9072C52.417 49.7627 54.8584 52.8145 57.3486 57.0625V45.1973H77.4902V156.525H56.8359V114.997C55.2734 118.22 52.5879 121.101 48.7793 123.64C45.0195 126.13 39.8682 127.375 33.3252 127.375C24.0967 127.375 16.2354 123.688 9.74121 116.315C3.24707 108.942 0 99.1035 0 86.7988C0 73.5176 3.24707 62.8975 9.74121 54.9385C16.2842 46.9795 24.3408 43 33.9111 43Z" fill="#28231F"/>
<path d="M182.342 84.3086C183.66 83.4785 185.003 82.7949 186.37 82.2578C187.688 81.7695 189.52 81.3057 191.863 80.8662L196.551 79.9873C200.945 79.2061 204.095 78.2539 205.999 77.1309C209.222 75.2266 210.833 72.2725 210.833 68.2686C210.833 64.7041 209.856 62.1162 207.903 60.5049C205.901 58.9424 203.484 58.1611 200.652 58.1611C196.16 58.1611 192.034 59.4795 188.274 62.1162C184.466 64.7529 182.488 69.5625 182.342 76.5449V84.3086ZM195.013 94.0498C191.155 94.5381 188.396 95.1484 186.736 95.8809C183.758 97.1504 182.269 99.1279 182.269 101.813C182.269 105.085 183.416 107.331 185.711 108.552C187.957 109.821 191.277 110.456 195.672 110.456C200.604 110.456 204.095 109.235 206.146 106.794C207.61 104.987 208.587 102.546 209.075 99.4697H229.217C228.777 106.452 226.824 112.189 223.357 116.682C217.84 123.713 208.367 127.229 194.939 127.229C186.199 127.229 178.436 125.495 171.648 122.028C164.861 118.562 161.468 112.019 161.468 102.399V65.7783C161.468 63.2393 161.419 60.1631 161.321 56.5498C161.175 53.8154 160.76 51.96 160.076 50.9834C159.393 50.0068 158.367 49.2012 157 48.5664V45.4902H179.705C180.34 47.1016 180.779 48.6152 181.023 50.0312C181.268 51.4473 181.463 53.0586 181.609 54.8652C184.49 51.7402 187.811 49.0791 191.57 46.8818C196.062 44.2939 201.141 43 206.805 43C214.031 43 220.013 45.0508 224.749 49.1523C229.437 53.3027 231.78 59.1621 231.78 66.7305C231.78 76.5449 227.996 83.6494 220.428 88.0439C216.277 90.4365 210.174 92.1455 202.117 93.1709L195.013 94.0498Z" fill="#28231F"/>
<path d="M245 0L246.133 6.87889C247.146 13.0314 251.969 17.8535 258.121 18.8669L265 20L258.121 21.1331C251.969 22.1465 247.146 26.9686 246.133 33.1211L245 40L243.867 33.1211C242.854 26.9686 238.031 22.1465 231.879 21.1331L225 20L231.879 18.8669C238.031 17.8535 242.854 13.0314 243.867 6.87889L245 0Z" fill="#28231F"/>
</svg>
