<svg width="211" height="138" viewBox="0 0 211 138" fill="none" xmlns="http://www.w3.org/2000/svg">
<path d="M196.048 15.96C193.92 15.96 192.096 15.2 190.576 13.68C189.157 12.16 188.448 10.2347 188.448 7.904C188.448 5.57333 189.157 3.69867 190.576 2.28C192.096 0.76 193.92 0 196.048 0C198.176 0 199.949 0.76 201.368 2.28C202.787 3.69867 203.496 5.57333 203.496 7.904C203.496 10.2347 202.787 12.16 201.368 13.68C199.949 15.2 198.176 15.96 196.048 15.96ZM183.28 107.92C181.76 107.92 181 107.363 181 106.248C181 105.336 181.659 104.728 182.976 104.424L184.8 104.12C187.333 103.715 188.955 103.107 189.664 102.296C190.373 101.384 190.728 99.864 190.728 97.736V46.664C190.728 44.84 190.424 43.624 189.816 43.016C189.309 42.3067 188.347 41.8507 186.928 41.648L183.736 41.192C182.419 41.0907 181.76 40.5333 181.76 39.52C181.76 38.7093 182.571 38.152 184.192 37.848C187.333 37.3413 189.867 36.5307 191.792 35.416C193.717 34.3013 195.592 32.9333 197.416 31.312C198.328 30.4 199.088 29.944 199.696 29.944C200.608 29.944 201.064 30.552 201.064 31.768V97.736C201.064 99.864 201.368 101.384 201.976 102.296C202.584 103.208 203.749 103.765 205.472 103.968L209.272 104.424C210.387 104.627 210.944 105.184 210.944 106.096C210.944 107.312 210.184 107.92 208.664 107.92H183.28Z" fill="#E2E2E2"/>
<path d="M82.32 107.888C79.7867 107.888 77.3547 107.331 75.024 106.216C72.6934 105.101 70.768 103.328 69.248 100.896C67.728 98.464 66.968 95.2213 66.968 91.168V38.272C66.968 36.448 66.664 35.1813 66.056 34.472C65.5493 33.7627 64.5867 33.3573 63.168 33.256L60.584 32.952C58.8613 32.7493 58 32.0907 58 30.976C58 29.6587 58.9627 29 60.888 29H75.024C76.544 29 77.304 29.76 77.304 31.28V87.976C77.304 92.6373 78.1653 95.9813 79.888 98.008C81.712 99.9333 84.1947 100.896 87.336 100.896C90.4773 100.896 93.264 100.035 95.696 98.312C98.128 96.488 100.053 94.1067 101.472 91.168C102.992 88.128 103.752 84.8347 103.752 81.288V38.272C103.752 36.448 103.448 35.1813 102.84 34.472C102.333 33.7627 101.371 33.3573 99.952 33.256L97.368 32.952C95.6453 32.7493 94.784 32.0907 94.784 30.976C94.784 29.6587 95.7467 29 97.672 29H111.808C113.328 29 114.088 29.76 114.088 31.28V90.256C114.088 92.08 114.341 93.3467 114.848 94.056C115.456 94.664 116.469 95.0693 117.888 95.272L121.08 95.728C122.397 95.8293 123.056 96.336 123.056 97.248C123.056 98.16 122.245 98.768 120.624 99.072C117.483 99.4773 114.949 100.288 113.024 101.504C111.2 102.72 109.579 104.189 108.16 105.912C107.248 106.824 106.488 107.28 105.88 107.28C104.968 107.28 104.512 106.672 104.512 105.456V98.464C104.512 97.6533 104.208 97.1973 103.6 97.096C103.093 96.8933 102.536 97.096 101.928 97.704C98.1787 101.453 94.8347 104.088 91.896 105.608C89.0587 107.128 85.8667 107.888 82.32 107.888Z" fill="#E2E2E2"/>
<path d="M31.312 137.592C29.792 137.592 29.032 136.984 29.032 135.768C29.032 134.856 29.5893 134.299 30.704 134.096L36.328 133.336C38.456 133.032 39.824 132.475 40.432 131.664C41.1413 130.955 41.496 129.536 41.496 127.408V99.592C41.496 98.7813 41.1413 98.2747 40.432 98.072C39.7227 97.768 39.0133 98.0213 38.304 98.832C35.7707 102.176 33.3893 104.507 31.16 105.824C28.9307 107.141 26.1947 107.8 22.952 107.8C18.4933 107.8 14.4907 106.28 10.944 103.24C7.49867 100.099 4.81333 95.792 2.888 90.32C0.962667 84.7467 0 78.312 0 71.016C0 62.504 1.31733 55.056 3.952 48.672C6.58666 42.1867 10.2347 37.12 14.896 33.472C19.5573 29.824 24.8267 28 30.704 28C32.7307 28 34.6053 28.304 36.328 28.912C38.152 29.52 40.0267 30.5333 41.952 31.952C44.1813 33.472 46.208 33.0667 48.032 30.736C49.0453 29.6213 49.8053 28.912 50.312 28.608C50.92 28.2027 51.4267 28 51.832 28C52.9467 28 53.352 28.7093 53.048 30.128C52.6427 32.3573 52.3387 35.3467 52.136 39.096C51.9333 42.744 51.832 47.608 51.832 53.688V127.408C51.832 129.536 52.136 131.056 52.744 131.968C53.4533 132.88 54.872 133.488 57 133.792L59.128 134.096C60.4454 134.197 61.104 134.805 61.104 135.92C61.104 137.035 60.344 137.592 58.824 137.592H31.312ZM26.296 100.808C28.9307 100.808 31.3627 99.9467 33.592 98.224C35.9227 96.4 37.7973 93.968 39.216 90.928C40.736 87.888 41.496 84.4933 41.496 80.744V46.544C41.496 41.984 40.432 38.3867 38.304 35.752C36.2774 33.1173 33.592 31.8 30.248 31.8C24.5733 31.8 19.9627 35.144 16.416 41.832C12.9707 48.4187 11.248 57.4373 11.248 68.888C11.248 79.3253 12.5653 87.28 15.2 92.752C17.936 98.1227 21.6347 100.808 26.296 100.808Z" fill="#E2E2E2"/>
<path d="M162.648 28C166.904 28 170.4 29.3173 173.136 31.952C175.872 34.688 177.24 38.2853 177.24 42.744C177.24 47.1013 175.872 51.2053 173.136 55.056C170.4 59.008 166.651 62.5547 161.888 65.696C157.125 68.8373 151.704 71.3706 145.624 73.296C144.307 73.7013 143.648 74.5627 143.648 75.88V89.712C143.648 94.576 144.408 98.0213 145.928 100.048C147.448 102.176 149.525 103.24 152.16 103.24C154.693 103.24 157.024 102.075 159.152 99.744C161.179 97.5147 162.648 93.7146 163.56 88.344C164.067 85.1013 165.181 82.72 166.904 81.2C168.525 79.7813 170.197 79.072 171.92 79.072C174.757 79.072 176.176 80.4907 176.176 83.328C176.176 86.2667 175.365 89.1547 173.744 91.992C172.021 94.9307 169.792 97.5653 167.056 99.896C164.32 102.328 161.331 104.253 158.088 105.672C154.845 107.091 151.603 107.8 148.36 107.8C138.328 107.8 133.312 101.973 133.312 90.32V43.808C133.312 39.552 132.248 37.424 130.12 37.424C128.803 37.424 127.587 38.2853 126.472 40.008C125.357 41.832 124.8 44.872 124.8 49.128C124.8 50.7493 124.141 51.56 122.824 51.56C121.608 51.56 121 50.6986 121 48.976C121 41.5786 122.317 36.208 124.952 32.864C127.485 29.6213 130.373 28 133.616 28C136.048 28 137.973 28.9627 139.392 30.888C140.811 32.9147 141.773 35.296 142.28 38.032C142.381 39.0453 142.837 39.552 143.648 39.552C144.357 39.6533 145.067 39.1973 145.776 38.184C148.208 34.84 150.691 32.3067 153.224 30.584C155.757 28.8613 158.899 28 162.648 28ZM158.544 34.992C155.909 34.992 153.477 35.904 151.248 37.728C149.019 39.6533 147.195 42.1867 145.776 45.328C144.357 48.4693 143.648 52.016 143.648 55.968V67.064C143.648 68.9893 144.712 69.5466 146.84 68.736C153.021 66.5066 157.835 63.416 161.28 59.464C164.624 55.6133 166.296 50.952 166.296 45.48C166.296 38.488 163.712 34.992 158.544 34.992Z" fill="#E2E2E2"/>
</svg>
